<?xml version="1.0" standalone="no"?>
<!DOCTYPE svg PUBLIC "-//W3C//DTD SVG 20010904//EN"
 "http://www.w3.org/TR/2001/REC-SVG-20010904/DTD/svg10.dtd">
<svg version="1.0" xmlns="http://www.w3.org/2000/svg"
 width="700.000000pt" height="700.000000pt" viewBox="0 0 700.000000 700.000000"
 preserveAspectRatio="xMidYMid meet">
<metadata>
Created by potrace 1.11, written by Peter Selinger 2001-2013
</metadata>
<g transform="translate(0.000000,700.000000) scale(0.100000,-0.100000)"
fill="#000000" stroke="none">
<path d="M2850 6099 c-76 -15 -165 -65 -217 -123 -41 -44 -114 -162 -194 -311
-9 -16 -71 -127 -139 -245 -67 -118 -134 -235 -148 -260 -14 -25 -70 -124
-125 -220 -55 -96 -114 -200 -130 -230 -17 -30 -50 -88 -74 -128 -24 -41 -43
-75 -43 -77 0 -2 -47 -86 -105 -185 -58 -100 -105 -183 -105 -185 0 -1 -29
-53 -65 -115 -36 -62 -65 -114 -65 -116 0 -3 -11 -21 -24 -42 -19 -29 -224
-389 -346 -607 -45 -80 -117 -207 -335 -590 -122 -214 -275 -484 -340 -600
-65 -115 -125 -221 -134 -235 -8 -14 -24 -40 -33 -58 -10 -18 -56 -100 -103
-182 -113 -198 -116 -206 -120 -317 -7 -155 65 -292 195 -375 101 -65 50 -62
1193 -62 572 -1 1041 2 1044 7 2 4 10 4 16 0 16 -10 3048 -11 3069 -1 9 4 19
5 22 0 6 -10 1070 -8 1116 2 106 24 231 122 279 221 51 103 60 221 24 326 -10
29 -86 173 -169 319 -83 146 -162 285 -176 310 -14 25 -42 74 -63 110 -21 36
-49 85 -63 110 -14 25 -117 207 -230 405 -112 198 -218 385 -234 415 -17 30
-34 60 -38 65 -4 6 -21 35 -38 65 -32 60 -200 356 -292 515 -32 55 -70 123
-85 150 -15 28 -54 95 -85 150 -32 55 -70 123 -85 150 -15 28 -63 111 -105
185 -43 74 -153 268 -245 430 -103 182 -183 311 -208 338 -159 164 -423 166
-585 4 -31 -31 -82 -110 -149 -228 -56 -99 -105 -188 -109 -197 -3 -9 -9 -17
-13 -17 -5 0 -155 259 -220 380 -13 25 -32 57 -42 72 -11 14 -19 28 -19 30 0
3 -67 123 -150 268 -82 144 -150 264 -150 265 0 7 -136 235 -157 263 -38 50
-117 108 -178 131 -66 25 -162 33 -225 20z m266 -742 c97 -171 195 -343 218
-382 22 -38 48 -83 56 -100 23 -43 320 -564 341 -600 18 -29 18 -29 -18 -95
-20 -36 -50 -90 -68 -120 -29 -48 -151 -264 -227 -400 -14 -25 -63 -110 -108
-190 -46 -80 -94 -165 -108 -190 -22 -40 -245 -431 -477 -840 -46 -80 -94
-165 -108 -190 -14 -25 -51 -90 -82 -145 -32 -55 -69 -120 -83 -145 -14 -25
-81 -144 -150 -265 -152 -267 -170 -306 -180 -381 l-7 -57 -843 0 c-464 0
-845 3 -848 5 -3 4 209 385 297 533 10 17 27 47 39 69 54 99 285 505 306 538
13 21 24 40 24 42 0 3 38 71 85 152 47 81 85 148 85 150 0 2 181 321 232 409
22 38 291 510 316 555 13 25 42 74 62 110 21 36 47 81 57 100 11 19 78 136
148 260 70 124 141 250 158 280 16 30 38 67 49 82 10 14 18 28 18 31 0 3 70
128 156 278 86 151 170 299 187 329 16 30 74 132 127 225 53 94 110 193 126
222 15 28 31 50 35 47 4 -2 87 -145 185 -317z m1892 -1347 c108 -190 243 -428
300 -530 58 -102 113 -198 124 -215 10 -16 21 -37 25 -45 4 -8 67 -120 141
-250 74 -129 146 -255 160 -280 13 -25 42 -74 62 -110 21 -36 47 -81 57 -100
43 -77 77 -137 235 -415 90 -159 190 -334 221 -388 31 -54 57 -101 57 -103 0
-2 11 -21 23 -42 13 -20 38 -62 54 -92 17 -30 47 -83 66 -117 21 -37 31 -63
24 -64 -14 -1 -640 -1 -673 0 -18 1 -23 10 -32 67 -13 80 -25 105 -239 479
-94 165 -180 317 -192 337 -11 21 -87 154 -167 295 -81 142 -161 283 -177 313
-17 30 -48 83 -69 118 -21 34 -38 64 -38 66 0 3 -24 46 -54 98 -29 51 -64 113
-78 138 -14 25 -79 140 -145 255 -66 116 -134 235 -151 265 -17 30 -66 116
-107 190 -42 74 -80 142 -86 150 -23 37 -119 209 -119 214 0 2 34 64 76 138
82 143 93 160 161 283 25 44 54 95 65 113 l20 33 130 -228 c72 -125 218 -383
326 -573z m-988 -241 c0 -3 37 -71 83 -150 46 -79 86 -151 90 -159 4 -8 13
-24 19 -35 21 -32 53 -86 90 -155 20 -36 88 -157 152 -269 64 -112 116 -207
116 -212 0 -4 3 -9 8 -11 4 -1 18 -23 31 -48 14 -25 106 -189 206 -365 100
-176 194 -340 207 -365 14 -25 83 -146 154 -270 225 -396 263 -464 259 -468
-7 -7 -2885 -6 -2891 1 -3 3 9 32 28 64 19 32 37 65 41 73 4 8 11 22 17 30 10
15 45 76 92 161 14 24 63 112 110 194 47 83 94 166 105 185 21 37 150 264 359
632 68 119 134 236 146 258 13 23 28 49 33 58 16 27 60 105 241 422 92 162
180 318 196 345 16 28 39 69 51 93 l21 43 18 -23 c10 -13 18 -26 18 -29z"/>
</g>
</svg>
